# xmcd CD database file
#
# Track frame offsets:
#	150
#	35723
#	86390
#	121826
#	152340
#	183112
#
# Disc length: 3059 seconds
#
# Revision: 0
# Processed by: cddbd v1.5.2PL0 Copyright (c) Steve Scherf et al.
# Submitted via: CDex 1.51
#
DISCID=390bf106
DTITLE=Fumio Miyashita - Kuon: Requiem Gaia
DYEAR=1998
DGENRE=New Age
TTITLE0=Hohoemi
TTITLE1=Kuon
TTITLE2=Kami
TTITLE3=Fusui
TTITLE4=Yuragi
TTITLE5=Yutori
EXTD=YEAR: 1998
EXTT0=
EXTT1=
EXTT2=
EXTT3=
EXTT4=
EXTT5=
PLAYORDER=
